# AST/ASF file generated using VICON BodyLanguage
# -----------------------------------------------
:version 1.10
:name VICON
:units
  mass 1.0
  length 0.45
  angle deg
:documentation
   .ast/.asf automatically generated from VICON data using
   VICON BodyBuilder and BodyLanguage model FoxedUp or BRILLIANT.MOD
:root
   order TX TY TZ RX RY RZ
   axis XYZ
   position 0 0 0  
   orientation 0 0 0 
:bonedata
  begin
     id 1 
     name lhipjoint
     direction 0.623415 -0.642378 0.445763 
     length 2.49859 
     axis 0 0 0  XYZ
  end
  begin
     id 2 
     name lfemur
     direction 0.34202 -0.939693 0  
     length 6.69689  
     axis 0 0 20  XYZ
    dof rx ry rz
    limits (-160.0 20.0)
           (-70.0 70.0)
           (-60.0 70.0)
  end
  begin
     id 3 
     name ltibia
     direction 0.34202 -0.939693 0   
     length 7.37574   
     axis 0 0 20   XYZ
    dof rx
    limits (-10.0 170.0)
  end
  begin
     id 4 
     name lfoot
     direction 0.084323 -0.231675 0.969132   
     length 2.09111   
     axis -90 7.62852e-016 20   XYZ
    dof rx rz
    limits (-45.0 90.0)
           (-70.0 20.0)
  end
  begin
     id 5 
     name ltoes
     direction 1.5357e-011 -4.21957e-011 1   
     length 1.04989   
     axis -90 7.62852e-016 20   XYZ
    dof rx
    limits (-90.0 20.0)
  end
  begin
     id 6 
     name rhipjoint
     direction -0.605402 -0.653903 0.45376   
     length 2.45455  
     axis 0 0 0  XYZ 
  end
  begin
     id 7 
     name rfemur
     direction -0.34202 -0.939693 0   
     length 6.64523   
     axis 0 0 -20   XYZ
    dof rx ry rz
    limits (-160.0 20.0)
           (-70.0 70.0)
           (-70.0 60.0)
  end
  begin
     id 8 
     name rtibia
     direction -0.34202 -0.939693 0   
     length 7.3339   
     axis 0 0 -20   XYZ
    dof rx
    limits (-10.0 170.0)
 end
 begin
     id 9 
     name rfoot
     direction -0.120854 -0.332043 0.93549   
     length 2.23135  
     axis -90 -7.62852e-016 -20   XYZ
    dof rx rz
    limits (-45.0 90.0)
           (-20.0 70.0)
  end
  begin
     id 10 
     name rtoes
     direction -1.53563e-011 -4.21914e-011 1   
     length 1.10614   
     axis -90 -7.62852e-016 -20   XYZ
    dof rx
    limits (-90.0 20.0)
  end
  begin
     id 11 
     name lowerback
     direction 0.0319682 0.998615 -0.0417941   
     length 2.02718   
     axis 0 0 0   XYZ
    dof rx ry rz
    limits (-20.0 45.0)
           (-30.0 30.0)
           (-30.0 30.0)
  end
  begin
     id 12 
     name upperback
     direction 7.63181e-005 0.995808 0.0914691   
     length 1.97539   
     axis 0 0 0   XYZ
    dof rx ry rz
    limits (-20.0 45.0)
           (-30.0 30.0)
           (-30.0 30.0)
  end
  begin
     id 13 
     name thorax
     direction -0.016423 0.993627 0.111514   
     length 2.00349   
     axis 0 0 0   XYZ
    dof rx ry rz
    limits (-20.0 45.0)
           (-30.0 30.0)
           (-30.0 30.0)
  end
  begin
     id 14 
     name lowerneck
     direction -0.174763 0.981668 -0.0760716   
     length 1.71436   
     axis 0 0 0   XYZ
    dof rx ry rz
    limits (-20.0 45.0)
           (-30.0 30.0)
           (-30.0 30.0)
  end
  begin
     id 15 
     name upperneck
     direction 0.345458 0.934587 -0.0848868   
     length 1.72805   
     axis 0 0 0   XYZ
    dof rx ry rz
    limits (-20.0 45.0)
           (-30.0 30.0)
           (-30.0 30.0)
  end
  begin
     id 16
     name head
     direction 0.13001 0.989848 -0.0574291  
     length 1.767  
     axis 0 0 0   XYZ
    dof rx ry rz
    limits (-20.0 45.0)
           (-30.0 30.0)
           (-30.0 30.0)
  end
  begin
     id 17 
     name lclavicle
     direction 0.952951 0.290122 0.0878234  
     length 3.54654  
     axis 0 0 0   XYZ
    dof ry rz
    limits (-20.0 10.0)
           (0.0 20.0)
  end
  begin
     id 18 
     name lhumerus
     direction 1 -4.48957e-011 -4.56525e-028   
     length 5.19807   
     axis 180 -30 -90   XYZ
    dof rx ry rz
    limits (-60.0 90.0)
           (-90.0 90.0)
           (-90.0 90.0)
  end
  begin
     id 19
     name lradius
     direction 1 -4.48979e-011 -2.0317e-027   
     length 3.0937   
     axis 180 -30 -90   XYZ
    dof rx
    limits (-10.0 170.0)
  end
  begin
     id 20
     name lwrist
     direction 1 -4.48953e-011 -3.05809e-027   
     length 1.54685   
     axis 8.48514e-016 90 90   XYZ
    dof ry
    limits (-180.0 0.0)
 end
  begin
     id 21 
     name lhand
     direction 1 -4.48952e-011 -6.11639e-027   
     length 0.672632   
     axis 3.9013e-015 90 90   XYZ
    dof rx rz
    limits (-90.0 90.0)
           (-45.0 45.0)
  end
  begin
     id 22 
     name lfingers
     direction 1 -4.48925e-011 -1.22426e-026   
     length 0.542293   
     axis 7.80276e-015 90 90   XYZ
    dof rx
    limits (0.0 90.0)
  end
  begin
     id 23
     name lthumb
     direction 0.707107 -6.3486e-011 0.707107   
     length 0.778628   
     axis -90 45 5.37419e-014   XYZ
    dof rx rz
    limits (-45.0 45.0)
           (-45.0 45.0)
  end
  begin
     id 24 
     name rclavicle
     direction -0.960732 0.273675 -0.0457849   
     length 3.52079  
     axis 0 0 0   XYZ 
    dof ry rz
    limits (-10.0 20.0)
           (-20.0 0.0)
  end
  begin
     id 25 
     name rhumerus
     direction -1 -4.48976e-011 -1.63613e-027  
     length 5.45222   
     axis 180 30 90   XYZ
    dof rx ry rz
    limits (-90.0 60.0)
           (-90.0 90.0)
           (-90.0 90.0)
  end
  begin
     id 26 
     name rradius
     direction -1 -4.48957e-011 -7.00033e-028   
     length 3.01284   
     axis 180 30 90   XYZ
    dof rx
    limits (-10.0 170.0)
  end
  begin
     id 27 
     name rwrist
     direction -1 -4.48983e-011 -3.05543e-027   
     length 1.50642   
     axis 8.48514e-016 -90 -90   XYZ
    dof ry
    limits (-180.0 0.0)
  end
  begin
     id 28
     name rhand
     direction -1 -4.48984e-011 -6.11072e-027   
     length 0.622296   
     axis 3.9013e-015 -90 -90   XYZ
    dof rx rz
    limits (-90.0 90.0)
           (-45.0 45.0)
  end
  begin
     id 29
     name rfingers
     direction -1 -4.48865e-011 -1.22637e-026   
     length 0.501711   
     axis 7.80276e-015 -90 -90   XYZ
    dof rx
    limits (0.0 90.0)
  end
  begin
     id 30
     name rthumb
     direction -0.707107 -6.34932e-011 0.707107   
     length 0.72036   
     axis -90 -45 -5.37419e-014   XYZ
    dof rx rz
    limits (-45.0 45.0)
           (-45.0 45.0)
  end
:hierarchy
  begin
    root lhipjoint rhipjoint lowerback
    lhipjoint lfemur
    lfemur ltibia
    ltibia lfoot
    lfoot ltoes
    rhipjoint rfemur
    rfemur rtibia
    rtibia rfoot
    rfoot rtoes
    lowerback upperback
    upperback thorax
    thorax lowerneck lclavicle rclavicle
    lowerneck upperneck
    upperneck head
    lclavicle lhumerus
    lhumerus lradius
    lradius lwrist
    lwrist lhand lthumb
    lhand lfingers
    rclavicle rhumerus
    rhumerus rradius
    rradius rwrist
    rwrist rhand rthumb
    rhand rfingers
  end

#!OML:ASF H:\Not Pregnant\Project 1\Capture day 1\Session 1\non-pregnant.ASF
:FULLY-SPECIFIED
:DEGREES
1
root 6.70088 15.8221 38.0664 -165.789 -23.5813 -179.757
lowerback -7.92874 3.51965 6.62526
upperback -6.7608 3.78974 -1.86036
thorax -2.04624 1.40004 -5.39934
lowerneck 8.49397 -3.7758 -32.6813
upperneck -3.90964 -10.6937 42.5624
head 2.19174 -7.49895 24.1027
rclavicle -8.07252e-015 1.1778e-014
rhumerus -58.1395 8.83638 -95.6883
rradius 51.6986
rwrist 4.00812
rhand -10.2537 -5.73
rfingers 7.12502
rthumb 15.7393 -35.11
lclavicle -8.07252e-015 1.1778e-014
lhumerus -51.1816 -2.85718 86.576
lradius 57.668
lwrist 29.7616
lhand -11.4168 -7.21874
lfingers 7.12502
lthumb 14.6189 22.246
rfemur -19.232 4.62142 23.6665
rtibia 25.1101
rfoot -19.1357 16.4061
rtoes -3.13427
lfemur -24.188 4.16987 -11.5591
ltibia 49.9364
lfoot 3.6675 12.0806
ltoes -35.0837
2
root 6.69362 15.8276 38.0438 -165.825 -23.0863 -179.814
lowerback -7.95926 3.61743 6.69754
upperback -6.8168 3.90489 -1.99594
thorax -2.05947 1.44632 -5.57334
lowerneck 9.26499 -3.73169 -32.6007
upperneck -4.57847 -10.7062 42.615
head 1.85722 -7.58213 24.1728
rclavicle 2.16857e-014 1.71576e-014
rhumerus -59.1657 9.05448 -95.9949
rradius 52.836
rwrist 3.74688
rhand -10.1314 -5.2142
rfingers 7.12502
rthumb 15.8571 -34.5849
lclavicle 2.16857e-014 1.71576e-014
lhumerus -51.965 -2.92061 86.3567
lradius 59.7017
lwrist 30.448
lhand -11.2627 -7.60211
lfingers 7.12502
lthumb 14.7674 21.8518
rfemur -18.9779 4.83923 23.5525
rtibia 24.8728
rfoot -19.5982 16.5477
rtoes -4.39111
lfemur -24.4917 3.95902 -11.6103
ltibia 50.7822
lfoot 3.86048 12.0402
ltoes -35.1829
3
root 6.68565 15.8333 38.0279 -165.797 -22.7059 -179.87
lowerback -7.93021 3.53474 6.81303
upperback -6.72581 3.7974 -1.97794
thorax -1.99056 1.39781 -5.62717
lowerneck 9.22239 -3.88295 -32.8669
upperneck -5.03702 -10.8466 42.6497
head 1.85044 -7.65257 24.248
rclavicle -1.01722e-015 -1.00014e-014
rhumerus -59.758 9.76407 -96.1713
rradius 53.8139
rwrist 3.52445
rhand -10.0678 -5.14137
rfingers 7.12502
rthumb 15.9184 -34.5072
lclavicle -1.01722e-015 -1.00014e-014
lhumerus -52.3785 -2.49769 86.1735
lradius 61.6997
lwrist 31.2208
lhand -11.1545 -7.90965
lfingers 7.12502
lthumb 14.8717 21.5366
rfemur -18.8517 4.78152 23.4597
rtibia 24.706
rfoot -19.0065 17.2259
rtoes -2.17145
lfemur -25.0191 3.70455 -11.6846
ltibia 51.7126
lfoot 4.03606 11.8148
ltoes -35.7346
4
root 6.68254 15.8335 38.0078 -165.913 -22.2224 -179.78
lowerback -7.8381 3.5189 6.93642
upperback -6.73581 3.77507 -1.97569
thorax -2.04903 1.379 -5.70116
lowerneck 9.61397 -3.88387 -32.9121
upperneck -5.54559 -10.8696 42.6938
head 1.65668 -7.70699 24.3283
rclavicle 1.45215e-013 4.06018e-014
rhumerus -60.4183 10.1798 -96.3503
rradius 54.4922
rwrist 3.31616
rhand -9.98703 -5.21401
rfingers 7.12502
rthumb 15.9961 -34.5736
lclavicle 1.45215e-013 4.06018e-014
lhumerus -52.9165 -2.19447 85.8888
lradius 63.4418
lwrist 32.2317
lhand -11.302 -8.17584
lfingers 7.12502
lthumb 14.7296 21.2808
rfemur -18.6177 5.1311 23.5124
rtibia 24.5481
rfoot -18.9902 17.2984
rtoes -2.1479
lfemur -25.387 3.49372 -11.5585
ltibia 52.6569
lfoot 5.26436 11.6861
ltoes -32.773
5
root 6.677 15.8334 37.9895 -165.997 -21.7497 -179.736
lowerback -7.75468 3.50603 7.06609
upperback -6.73113 3.75717 -1.98899
thorax -2.08551 1.36385 -5.79386
lowerneck 9.96051 -3.91254 -32.9783
upperneck -6.04793 -10.9268 42.7365
head 1.4935 -7.77431 24.4059
rclavicle 6.00287e-014 1.31384e-014
rhumerus -61.0727 10.6215 -96.5228
rradius 55.2257
rwrist 3.052
rhand -9.90872 -5.174
rfingers 7.12502
rthumb 16.0715 -34.5275
lclavicle 6.00287e-014 1.31384e-014
lhumerus -53.4373 -1.89717 85.6287
lradius 65.2198
lwrist 33.1394
lhand -11.3908 -8.42483
lfingers 7.12502
lthumb 14.644 21.0381
rfemur -18.4227 5.37995 23.5119
rtibia 24.4345
rfoot -18.9277 17.5
rtoes -1.78028
lfemur -25.7962 3.3132 -11.5034
ltibia 53.627
lfoot 5.84043 11.4407
ltoes -31.5693
6
root 6.67187 15.8303 37.9725 -166.1 -21.2707 -179.666
lowerback -7.65082 3.48825 7.20469
upperback -6.72619 3.73467 -1.98836
thorax -2.13427 1.34602 -5.87831
lowerneck 10.3035 -3.93249 -33.0419
upperneck -6.5249 -10.9818 42.7854
head 1.33669 -7.84171 24.493
rclavicle 4.22008e-014 1.88845e-014
rhumerus -61.649 11.0514 -96.6566
rradius 55.8319
rwrist 2.7507
rhand -9.82897 -5.17489
rfingers 7.12502
rthumb 16.1483 -34.5222
lclavicle 4.22008e-014 1.88845e-014
lhumerus -53.9181 -1.57003 85.361
lradius 66.9011
lwrist 34.0669
lhand -11.5642 -8.63105
lfingers 7.12502
lthumb 14.4769 20.8439
rfemur -18.2327 5.67099 23.54
rtibia 24.3624
rfoot -18.9102 17.612
rtoes -1.60614
lfemur -26.2235 3.15177 -11.4222
ltibia 54.6357
lfoot 6.36003 11.1132
ltoes -30.3883
